<svg width="127" height="175" viewBox="0 0 127 175" fill="none" xmlns="http://www.w3.org/2000/svg">
<mask id="mask0_73_118" style="mask-type:alpha" maskUnits="userSpaceOnUse" x="-54" y="0" width="181" height="175">
<ellipse cx="36.5" cy="87.1974" rx="90.5" ry="87" fill="white"/>
</mask>
<g mask="url(#mask0_73_118)">
<path d="M256.028 -2.57033C212.578 18.0494 264.82 82.9032 183.193 81.8874C139.589 81.3447 102.718 147.02 132.823 174.918C162.927 202.816 112.532 258.751 56.8928 272.208M-167.752 146.4C-150.735 138.447 -122.693 129.136 -132.217 102.712C-141.74 76.2877 -111.784 50.8302 -91.8224 49.1103C-57.6726 46.1679 -25.0831 -21.1548 -41.4526 -43.9203C-51.4191 -57.781 -52.5728 -89.2678 -16.8061 -97.1132C18.9607 -104.959 14.3874 -120.312 31.383 -128.378M247.84 -7.14886C226.288 3.07916 228.572 24.2283 224.788 42.4978C221.003 60.7673 213.967 77.2929 175.005 77.3088C154.594 77.8774 134.021 96.0214 122.269 115.244C111.033 134.421 108.311 157.89 123.162 172.294C152.516 200.138 102.936 254.373 48.7048 267.629M239.715 -11.6927C218.333 -1.54593 220.704 19.3856 215.718 37.2636C210.733 55.1417 204.004 72.2291 166.879 72.7649C147.85 74.167 126.826 94.1576 114.232 112.769C102.669 131.291 98.9245 154.834 113.575 169.689C142.185 197.48 93.4131 250.029 40.5795 263.085M231.652 -16.2018C210.441 -6.13558 212.896 14.58 206.719 32.0697C200.542 49.5594 194.119 67.2042 158.817 68.2558C141.158 70.4849 119.686 92.3079 106.258 110.312C94.3697 128.184 89.6104 151.801 104.063 167.104C131.933 194.843 83.9641 245.717 32.517 258.576M223.653 -20.6764C202.609 -10.6901 205.15 9.81127 197.79 26.9156C190.431 44.0199 184.31 62.2179 150.817 63.7813C134.518 66.831 112.602 90.472 98.3455 107.874C86.1348 125.101 80.3687 148.792 94.624 164.539C121.762 192.225 74.5887 241.439 24.5173 254.102M215.716 -25.1162C194.84 -15.2092 197.464 5.07959 188.932 21.8016C180.399 38.5236 174.578 57.2703 142.88 59.3415C127.93 63.2053 105.573 88.65 90.4953 105.455C77.9646 122.041 71.1996 145.805 85.2594 161.994C111.67 189.627 65.2868 237.193 16.5803 249.662M207.841 -29.5216C187.131 -19.6932 189.839 0.384657 180.143 16.7274C170.446 33.0701 164.924 52.3611 135.006 54.9361C121.394 59.6076 98.5995 86.8417 82.7071 103.055C69.8588 119.005 62.1029 142.842 75.9689 159.468C101.658 187.05 56.0584 232.981 8.70593 245.257M200.03 -33.8924C179.484 -24.1421 182.274 -4.27341 171.424 11.693C160.573 27.6595 155.346 47.4906 127.194 50.5653C114.91 56.038 91.6818 85.0472 74.9809 100.673C61.8176 115.993 53.0787 139.901 66.7524 156.961C91.7253 184.492 46.9036 228.801 0.894319 240.886M192.281 -38.229C171.898 -28.5561 174.77 -8.89494 162.775 6.69829C150.779 22.2915 145.845 42.6583 119.445 46.2287C108.478 52.4961 84.8195 83.2662 67.3167 98.3087C53.841 113.004 44.1269 136.983 57.6099 154.474C81.8727 181.954 37.8222 224.655 -6.85463 236.549M184.594 -42.5312C164.374 -32.9351 167.327 -13.4797 154.196 1.74329C141.064 16.9663 136.421 37.8644 111.759 41.9265C102.098 48.9822 78.0126 81.4989 59.7144 95.9632C45.9288 110.039 35.2476 134.089 48.5413 152.006C72.0998 179.435 28.8143 220.541 -14.5409 232.247M176.971 -46.7993C156.911 -37.2795 159.945 -18.0282 145.687 -3.17231C131.429 11.6835 127.074 33.1086 104.135 37.6584C95.7695 45.4959 71.2612 79.7448 52.174 93.6357C38.0811 107.096 26.4406 131.216 39.5467 149.557C62.4067 176.936 19.8799 216.459 -22.1646 227.979M169.409 -51.0335C149.508 -41.5892 152.622 -22.5403 137.247 -8.04862C121.872 6.44308 117.804 28.3908 96.5739 33.4242C89.4931 42.0371 64.565 78.004 44.6955 91.3262C30.2977 104.177 17.7058 128.366 30.6258 147.127C52.7931 174.457 11.0187 212.41 -29.7259 223.745M161.911 -55.2339C142.168 -45.8645 145.361 -27.0164 128.878 -12.8858C112.395 1.24483 108.61 23.7108 89.0752 29.2238C83.2685 38.6057 57.9242 76.2762 37.2788 89.0344C22.5787 101.28 9.04341 125.539 21.7788 144.715C43.2591 171.996 2.23088 208.394 -37.2245 219.544M154.474 -59.4007C134.888 -50.1056 138.16 -31.4566 120.578 -17.684C102.996 -3.9115 99.4931 19.0684 81.6389 25.057C77.0956 35.2014 51.3385 74.5612 29.9237 86.7602C14.9239 98.4065 0.453121 122.733 13.0055 142.323C33.8046 169.555 -6.48374 204.409 -44.6609 215.378M147.101 -63.5325C127.67 -54.3111 131.02 -35.8594 112.349 -22.442C93.6775 -9.0245 90.4532 14.465 74.2655 20.9251C70.9749 31.8256 44.8086 72.8604 22.6309 84.5049C7.33382 95.5566 -8.06449 119.951 4.30647 139.95C24.4301 167.134 -15.1246 200.458 -52.0343 211.246M139.791 -67.6292C120.513 -58.4808 123.94 -40.2248 104.189 -27.1594C84.4381 -14.0939 81.4904 9.90081 66.955 16.8285C64.9064 28.4785 38.3343 71.174 15.4003 82.2688C-0.191508 92.731 -16.5095 117.192 -4.31842 137.597C15.1355 164.733 -23.6918 196.54 -59.3448 207.149M132.543 -71.6905C113.418 -62.6145 116.922 -44.5526 96.1 -31.8361C75.2782 -19.1196 72.6048 5.37598 59.7075 12.7671C58.8902 25.1603 31.9158 69.5023 8.23193 80.052C-7.65198 89.9297 -24.8817 114.458 -12.869 135.265C5.92104 162.353 -32.1852 192.656 -66.5923 203.088M125.358 -75.7166C106.385 -66.7123 109.964 -48.8427 88.0812 -36.4722C66.198 -24.1017 63.7963 0.890459 52.5229 8.7411C52.9263 21.8709 25.5531 67.845 1.1259 77.8545C-15.0476 87.1528 -33.1812 111.747 -21.3453 132.953C-3.21341 159.994 -40.6048 188.806 -73.7769 199.062M118.237 -79.7074C99.4129 -70.7743 103.068 -53.0954 80.1326 -41.0678C57.1973 -29.0402 55.065 -3.55584 45.4012 4.75025C47.0145 18.6103 19.246 66.2023 -5.91795 75.6762C-22.3785 84.4002 -41.408 109.06 -29.7474 130.661C-12.2679 157.656 -48.9507 184.99 -80.8986 195.071M111.178 -83.6629C92.5028 -74.8003 96.2324 -57.3103 72.2543 -45.6226C48.2761 -33.9349 46.4109 -7.96274 38.3425 0.794773C41.1551 15.3785 12.9947 64.5741 -12.8995 73.5172C-29.6447 81.6719 -49.5621 106.396 -38.0752 128.39C-21.2423 155.338 -57.2228 181.207 -87.9573 191.115M104.182 -87.5831C85.6543 -78.7904 89.4579 -61.4877 64.4462 -50.1369C39.4345 -38.786 37.834 -12.3304 31.3467 -3.12546C35.3479 12.1756 6.79924 62.9604 -19.8188 71.3774C-36.8459 78.968 -57.6435 103.757 -46.3287 126.139C-30.1367 153.041 -65.4212 177.459 -94.9531 187.195M97.2494 -91.4682C78.8673 -82.7447 82.7443 -65.6276 56.7084 -54.6106C30.6725 -43.5936 29.3342 -16.6588 24.4138 -7.0105C29.5929 9.00142 0.659427 61.3612 -26.6759 69.2568C-43.9825 76.2883 -65.6522 101.141 -54.5081 123.908C-38.9511 150.764 -73.5458 173.743 -101.886 183.31M90.3795 -95.3179C72.142 -86.663 76.0916 -69.7298 49.0408 -59.0436C21.9899 -48.3574 20.9116 -20.9478 17.5439 -10.8602C23.8901 5.85616 -5.42463 59.7765 -33.4707 67.1555C-51.0542 73.6331 -73.5882 98.5485 -62.6131 121.697C-47.6855 148.509 -81.5966 170.062 -108.756 179.46M83.5726 -99.1323C65.4784 -90.5454 69.4999 -73.7944 41.4435 -63.436C13.387 -53.0775 12.5662 -25.1975 10.737 -14.6746C18.2397 2.73969 -11.4529 58.2064 -40.2032 65.0735C-58.0611 71.0021 -81.4514 95.9801 -70.6438 119.507C-56.3398 146.273 -89.5736 166.414 -115.563 175.646M76.8285 -102.911C58.8763 -94.392 62.9692 -77.8215 33.9164 -67.7878C5.08312 -57.83 4.30809 -29.8355 3.99996 -18.7051L3.99298 -18.4538C12.6414 -0.348028 -17.4255 56.6507 -46.8736 63.0107C-65.0033 68.3954 -89.242 93.4354 -78.6004 117.336C-64.9141 144.059 -97.477 162.8 -122.307 171.867M70.1475 -106.655C52.336 -98.2026 56.4994 -81.811 26.4596 -72.099C-3.58025 -62.387 -3.89312 -33.5792 -2.68802 -22.1977C7.09552 -3.40687 -23.3423 55.1096 -53.4815 60.9672C-71.8806 65.8131 -96.9597 90.9145 -86.4826 115.186C-73.4083 141.865 -105.306 159.22 -128.988 168.123M63.5294 -110.364C45.8571 -101.977 50.0905 -85.7629 19.073 -76.3696C-11.9446 -66.9762 -12.0071 -37.711 -9.30617 -25.9062C1.60176 -6.43688 -29.2034 53.5831 -60.0273 58.9429C-78.6932 63.2552 -104.605 88.4173 -94.2906 113.057C-81.8226 139.692 -113.062 155.674 -135.606 164.414M56.9742 -114.037C39.4399 -105.716 43.7427 -89.6773 11.7567 -80.5996C-20.2293 -71.5219 -20.0438 -41.8037 -15.8613 -29.5797C-3.83971 -9.43817 -35.0087 52.0709 -66.5109 56.9378C-85.441 60.7215 -112.177 85.9438 -102.024 110.947C-90.1568 137.54 -120.744 152.161 -142.161 160.741M50.482 -117.675C33.0844 -109.419 37.4558 -93.554 4.51063 -84.7889C-28.4345 -76.0239 -28.0034 -45.8569 -22.3536 -33.2177C-9.22893 -12.4106 -40.7583 50.5734 -72.9321 54.9521C-92.1239 58.2122 -119.677 83.4942 -109.684 108.858C-98.411 135.408 -128.352 148.682 -148.653 157.103M44.0527 -121.278C26.7904 -113.086 31.2298 -97.3931 -2.66517 -88.9376C-36.5601 -80.4821 -35.8858 -49.8709 -28.7828 -36.8205C-14.5659 -15.3541 -46.4521 49.0904 -79.2911 52.9856C-98.7421 55.7272 -127.104 81.0683 -117.269 106.789C-106.585 133.297 -135.887 145.236 -155.083 153.5M37.6863 -124.846C20.5581 -116.717 25.0647 -101.195 -9.77075 -93.0458C-44.6062 -84.8968 -43.691 -53.8456 -35.1492 -40.3881C-19.8506 -18.2689 -52.0902 47.6219 -85.5879 51.0383C-105.295 53.2665 -134.458 78.6661 -124.78 104.74C-114.679 131.206 -143.348 141.825 -161.449 149.932" stroke="#D99999" stroke-width="2"/>
</g>
</svg>
