<svg width="338" height="271" viewBox="0 0 338 271" fill="none" xmlns="http://www.w3.org/2000/svg">
<circle cx="255" cy="135.089" r="83" fill="#D99999"/>
<mask id="mask0_297_25" style="mask-type:alpha" maskUnits="userSpaceOnUse" x="-23" y="0" width="270" height="271">
<circle cx="112" cy="135.257" r="135" fill="white"/>
</mask>
<g mask="url(#mask0_297_25)">
<path d="M439.473 -4.03729C374.658 27.9588 452.587 128.594 330.823 127.018C265.779 126.176 210.779 228.085 255.686 271.376C300.594 314.666 225.418 401.462 142.42 422.343M-192.686 227.124C-167.3 214.783 -125.471 200.335 -139.677 159.332C-153.883 118.329 -109.197 78.8256 -79.4201 76.1567C-28.4783 71.591 20.1358 -32.8753 -4.28277 -68.2011C-19.1499 -89.709 -20.8709 -138.568 32.4828 -150.742C85.8365 -162.916 79.0144 -186.741 104.367 -199.256M427.259 -11.1419C395.109 4.72916 398.517 37.5467 392.871 65.8959C387.226 94.2452 376.729 119.888 318.609 119.913C288.163 120.795 257.474 148.95 239.942 178.777C223.182 208.536 219.122 244.952 241.275 267.304C285.063 310.511 211.103 394.668 130.206 415.238M415.138 -18.1928C383.243 -2.44771 386.779 30.0322 379.343 57.774C371.906 85.5159 361.868 112.031 306.489 112.862C278.103 115.038 246.74 146.058 227.954 174.937C210.706 203.678 205.12 240.211 226.974 263.262C269.651 306.386 196.898 387.926 118.086 408.187M403.111 -25.1896C371.47 -9.56959 375.133 22.5752 365.919 49.7144C356.704 76.8536 347.122 104.234 294.462 105.865C268.12 109.324 236.09 143.188 216.059 171.125C198.325 198.857 191.226 235.505 212.784 259.251C254.359 302.293 182.803 381.236 106.059 401.19M391.178 -32.1329C359.788 -16.6369 363.577 15.1755 352.599 41.7168C341.621 68.258 332.49 96.4961 282.528 98.9221C258.215 103.654 225.522 140.339 204.256 167.343C186.041 194.073 177.44 230.835 198.704 255.271C239.186 298.231 168.817 374.597 94.1253 394.247M379.338 -39.0222C348.197 -23.6493 352.112 7.83327 339.384 33.7812C326.656 59.7291 317.974 88.8188 270.689 92.0328C248.387 98.0283 215.037 137.512 192.546 163.589C173.853 189.326 163.762 226.201 184.735 251.321C224.132 294.201 154.942 368.01 82.2856 387.358M367.592 -45.8582C336.698 -30.6073 340.737 0.548029 326.274 25.9074C311.81 51.2668 303.572 81.2012 258.942 85.1968C238.637 92.4456 204.635 134.706 180.928 159.864C161.762 184.615 150.192 221.602 170.876 247.401C209.197 290.201 141.176 361.473 70.5393 380.522M355.939 -52.6405C325.291 -37.5108 329.453 -6.68001 313.267 18.0955C297.082 42.871 289.284 73.6434 247.29 78.4145C228.965 86.9066 194.315 131.921 169.403 156.167C149.767 179.941 136.731 217.039 157.128 243.511C194.38 286.231 127.519 354.988 58.8867 373.739M344.38 -59.3697C313.975 -44.3601 318.26 -13.8513 300.366 10.345C282.472 34.5414 275.112 66.1451 235.73 71.6854C219.37 81.4107 184.079 129.157 157.97 152.499C137.868 175.303 123.377 212.512 143.49 239.652C179.683 282.293 113.972 348.553 47.3275 367.01M332.914 -66.0455C302.751 -51.1551 307.157 -20.9657 287.568 2.65626C267.98 26.2782 261.054 58.7062 224.265 65.0095C209.853 75.958 173.925 126.415 146.629 148.86C126.065 170.701 110.132 208.02 129.962 235.822C165.105 278.385 100.535 342.17 35.8617 360.334M321.542 -72.6685C291.618 -57.8963 296.144 -28.0236 274.875 -4.97141C253.606 18.0808 247.111 51.3266 212.892 58.3866C200.413 70.5483 163.854 123.693 135.381 145.248C114.359 166.135 96.9944 203.563 116.545 232.022C150.645 274.507 87.2077 335.836 24.4894 353.712M310.263 -79.2388C280.576 -64.5838 285.221 -35.0252 262.286 -12.5381C239.351 9.94903 233.282 44.0058 201.613 51.8162C191.051 65.1812 153.865 120.992 124.225 141.664C102.748 161.605 83.9646 199.14 103.238 228.251C136.305 270.66 73.9893 329.554 13.2101 347.141M299.077 -85.7566C269.626 -71.2179 274.389 -41.9708 249.801 -20.044C225.213 1.88278 219.568 36.7438 190.427 45.2984C181.765 59.8566 143.959 118.311 113.162 138.108C91.2335 157.11 71.0428 194.753 90.0404 224.51C122.083 266.842 60.8804 323.321 2.02427 340.623M287.984 -92.2223C258.767 -77.7989 263.647 -48.8607 237.42 -27.4896C211.194 -6.11842 205.968 29.5401 179.334 38.8327C172.557 54.574 134.135 115.65 102.19 134.579C79.8147 152.651 58.2285 190.399 76.9531 220.797C107.979 263.053 47.8807 317.138 -9.06858 334.158M276.985 -98.6338C247.999 -84.3247 252.996 -55.6928 225.144 -34.8726C197.292 -14.0524 192.483 22.3969 168.335 32.4212C163.427 49.3356 124.394 113.01 91.3114 131.079C68.4925 148.229 45.5227 186.082 63.9766 217.115C93.9953 259.296 34.991 311.006 -20.0676 327.746M266.08 -104.991C237.323 -90.7949 242.436 -62.4667 212.973 -42.1927C183.51 -21.9187 179.113 15.3145 157.43 26.0643C154.374 44.1419 114.736 110.394 80.5254 127.61C57.2669 143.844 32.9252 181.802 51.1107 213.464C80.1304 255.571 22.2112 304.927 -30.9728 321.389M255.269 -111.293C226.74 -97.2093 231.966 -69.1822 200.906 -49.4497C169.846 -29.7172 165.858 8.29318 146.619 19.7622C145.4 38.9929 105.162 107.8 69.8323 124.17C46.138 139.497 20.4363 177.558 38.3558 209.845C66.3851 251.879 9.54151 298.901 -41.784 315.087M244.551 -117.54C216.248 -103.568 221.588 -75.8393 188.944 -56.6437C156.301 -37.448 152.718 1.33289 135.902 13.5149C136.503 33.8887 95.6704 105.228 59.2321 120.76C35.1058 135.188 8.05579 173.352 25.7115 206.258C52.7591 248.218 -3.01809 292.927 -52.5013 308.84M233.928 -123.733C205.848 -109.871 211.3 -82.4382 177.087 -63.7747C142.875 -45.1112 139.694 -5.56654 125.278 7.32223C127.685 28.8291 86.2621 102.679 48.7247 117.38C24.1702 130.917 -4.21631 169.182 13.178 202.702C39.2524 244.589 -15.4678 287.005 -63.1249 302.647M223.398 -129.871C195.54 -116.118 201.104 -88.9787 165.335 -70.8426C129.567 -52.7065 126.784 -12.4048 114.749 1.18441C118.944 23.8144 76.937 100.152 38.3102 114.029C13.3313 126.683 -16.3798 165.049 0.755326 199.177C25.8652 240.993 -27.8074 281.135 -73.6545 296.509M212.963 -135.954C185.324 -122.31 190.998 -95.4608 153.688 -77.8474C116.378 -60.2341 113.99 -19.1822 104.313 -4.89871C110.281 18.8443 67.6951 97.6483 27.9886 110.709C2.58904 122.488 -28.4349 160.953 -11.5566 195.684C12.5973 237.428 -40.037 275.318 -84.0901 290.426M202.621 -141.982C175.2 -128.446 180.983 -101.885 142.145 -84.7894C103.307 -67.6941 101.311 -25.8987 93.971 -10.9272C101.697 13.9189 58.5363 95.1667 17.7598 107.419C-8.05664 118.33 -40.3816 156.894 -23.7578 192.222C-0.551287 233.896 -52.1566 269.553 -94.432 284.398M192.373 -147.956C165.168 -134.526 171.059 -108.25 130.707 -91.6682C90.3552 -75.0862 88.7467 -32.5541 83.7231 -16.9008C93.1898 9.03829 49.4606 92.7078 7.6239 104.158C-18.6057 114.209 -52.2198 152.871 -35.8482 188.791C-13.5804 230.395 -64.1661 263.84 -104.68 278.424M182.219 -153.875C155.228 -140.55 161.227 -114.557 119.374 -98.484C77.5222 -82.4105 76.2978 -39.1485 73.5691 -22.8197C84.761 4.20239 40.4681 90.2714 -2.4191 100.927C-29.0579 110.127 -63.9495 148.886 -47.8277 185.392C-26.4902 226.927 -76.0655 258.18 -114.834 272.505M172.159 -159.739C145.379 -146.519 151.484 -120.806 108.146 -105.237C65.1351 -89.785 63.979 -46.3452 63.5194 -29.074L63.509 -28.684C76.41 -0.588898 31.5587 87.8574 -12.3693 97.7263C-39.4137 106.082 -75.5708 144.937 -59.6966 182.025C-39.2806 223.491 -87.8551 252.572 -124.894 266.641M162.193 -165.549C135.623 -152.432 141.833 -126.997 97.0227 -111.927C52.2119 -96.8563 51.7452 -52.1545 53.5428 -34.4935C68.1371 -5.33538 22.7326 85.4661 -22.2265 94.5554C-49.6726 102.075 -87.0835 141.025 -71.4546 178.689C-51.9515 220.087 -99.5344 247.017 -134.86 260.831M152.32 -171.303C125.958 -158.29 132.273 -133.129 86.004 -118.553C39.7347 -103.978 39.6415 -58.566 43.6705 -40.2482C59.942 -10.0371 13.9896 83.0973 -31.991 91.4143C-59.835 98.1057 -98.4879 137.15 -83.1019 175.384C-64.5032 216.715 -111.104 241.514 -144.733 255.077M142.542 -177.003C116.386 -164.091 122.804 -139.203 75.0902 -125.117C27.3763 -111.031 27.653 -64.9166 33.892 -45.9483C51.8248 -14.6943 5.32966 80.7509 -41.6626 88.3029C-69.9008 94.1741 -109.784 133.312 -94.6384 172.111C-76.9355 213.375 -122.563 236.063 -154.511 249.377M132.857 -182.649C106.905 -169.837 113.426 -145.219 64.2811 -131.618C15.1365 -118.017 15.7796 -71.2062 24.2075 -51.5936C43.7857 -19.3066 -3.24702 78.4271 -51.2412 85.2216C-79.8698 90.2804 -120.971 129.511 -106.064 168.869C-89.2483 210.067 -133.912 230.664 -164.195 243.731M123.267 -188.239C97.5162 -175.527 104.138 -151.176 53.5769 -138.055C3.01537 -124.935 4.02132 -77.4347 14.6169 -57.1841C35.8245 -23.8742 -11.7406 76.1259 -60.727 82.1701C-89.7423 86.4244 -132.05 125.747 -117.379 165.658C-101.442 206.791 -145.152 225.318 -173.786 238.141M113.77 -193.775C88.2193 -181.162 94.942 -157.075 42.9774 -144.43C-8.98711 -131.785 -7.62188 -83.6024 5.12008 -62.72C27.9412 -28.3972 -20.151 73.8471 -70.12 79.1484C-99.518 82.6061 -143.021 122.019 -128.583 162.479C-113.516 203.547 -156.281 220.024 -183.283 232.605" stroke="#D99999" stroke-width="2"/>
</g>
</svg>
